# xmcd CD database file
#
# Track frame offsets:
#	150
#	39197
#	67587
#	95274
#	124118
#	162495
#	199611
#	249785
#
# Disc length: 3591 seconds
#
# Revision: 0
# Processed by: cddbd v1.5.2PL0 Copyright (c) Steve Scherf et al.
# Submitted via: CDex 1.70beta2
#
DISCID=560e0508
DTITLE=The Peter Hand Big Band - The Wizard Of Jazz
DYEAR=2005
DGENRE=Jazz
TTITLE0=Come Rain Or Come Shine
TTITLE1=I'll Wind
TTITLE2=This Time The Dream's On Me
TTITLE3=The Man That Got Away
TTITLE4=Let's Fall In Love
TTITLE5=Stormy Weather
TTITLE6=Blue Jug - Harold's Blues
TTITLE7=Over The Rainbow
EXTD=YEAR: 2005
EXTT0=
EXTT1=
EXTT2=
EXTT3=
EXTT4=
EXTT5=
EXTT6=
EXTT7=
PLAYORDER=
